<svg xmlns="http://www.w3.org/2000/svg" xmlns:xlink="http://www.w3.org/1999/xlink" width="32.45" height="32.45" viewBox="0 0 32.45 32.45">
  <defs>
    <clipPath id="clip-path">
      <path id="path2139" d="M0-682.665H32.45v32.45H0Z" transform="translate(0 682.665)"/>
    </clipPath>
  </defs>
  <g id="g2121" transform="translate(0 682.665)">
    <g id="g2123" transform="translate(17.987 -675.983)">
      <path id="path2125" d="M0,0,1.644.318" fill="none" stroke="#97d700" stroke-linecap="round" stroke-linejoin="round" stroke-width="1.5"/>
    </g>
    <g id="g2127" transform="translate(26.507 -674.19)">
      <path id="path2129" d="M-14.731,0l-.735,6.8" transform="translate(15.467)" fill="none" stroke="#97d700" stroke-linecap="round" stroke-linejoin="round" stroke-width="1.5"/>
    </g>
    <g id="g2131" transform="translate(25.101 -674.605)">
      <path id="path2133" d="M-42.909-8.318l-2.141-.415" transform="translate(45.051 8.733)" fill="none" stroke="#97d700" stroke-linecap="round" stroke-linejoin="round" stroke-width="1.5"/>
    </g>
    <g id="g2135" transform="translate(0 -682.665)">
      <g id="g2137" clip-path="url(#clip-path)">
        <g id="g2143" transform="translate(11.28 1.49)">
          <path id="path2145" d="M-63.068-43.284v-2.16h-2.111l-1.037.584" transform="translate(66.216 45.444)" fill="none" stroke="#97d700" stroke-linecap="round" stroke-linejoin="round" stroke-width="1.5"/>
        </g>
        <g id="g2147" transform="translate(20.481 0.824)">
          <path id="path2149" d="M-117.21-64.764l.354-1.822a.341.341,0,0,0-.27-.4l-5.179-1a.342.342,0,0,0-.4.27l-.356,1.822" transform="translate(123.06 67.996)" fill="none" stroke="#97d700" stroke-linecap="round" stroke-linejoin="round" stroke-width="1.5"/>
        </g>
        <g id="g2151" transform="translate(12.658 3.65)">
          <path id="path2153" d="M-20.627,0h1.48a1.033,1.033,0,0,1,1.029,1.032v1.03h-3.539V1.032A1.033,1.033,0,0,1-20.627,0Z" transform="translate(21.656)" fill="none" stroke="#97d700" stroke-linecap="round" stroke-linejoin="round" stroke-width="1.5"/>
        </g>
        <g id="g2155" transform="translate(15.752 2.482)">
          <path id="path2157" d="M0-27.077a2.246,2.246,0,0,1,2.738-1.28c.754.128,4.281.8,4.917.933s4.163.809,4.912.972a2.218,2.218,0,0,1,2.046,2.4l-.99,8.422" transform="translate(0 28.429)" fill="none" stroke="#97d700" stroke-linecap="round" stroke-linejoin="round" stroke-width="1.5"/>
        </g>
        <g id="g2159" transform="translate(4.604 9.602)">
          <path id="path2161" d="M-12.24-113.756l-.611-1.236c2.652-1.812,2.176-3.107,3.7-3.851s2.253.413,5.3-.589l.884,1.792a4.509,4.509,0,0,1,.014,3.885" transform="translate(12.851 119.433)" fill="none" stroke="#97d700" stroke-linecap="round" stroke-linejoin="round" stroke-width="1.5"/>
        </g>
        <g id="g2163" transform="translate(7.227 11.924)">
          <path id="path2165" d="M0-67.23c1.207-1.3,1.179-2.329,2.384-2.92,1.543-.767,1.991.584,5.1-.435" transform="translate(0 70.585)" fill="none" stroke="#97d700" stroke-linecap="round" stroke-linejoin="round" stroke-width="1.5"/>
        </g>
        <g id="g2167" transform="translate(2.328 12.713)">
          <path id="path2169" d="M-13.683-51.535a5.608,5.608,0,0,1-.487-.814c-.8-1.616,1.046-2.525,1.843-.909l.237.482" transform="translate(14.365 54.107)" fill="none" stroke="#97d700" stroke-linecap="round" stroke-linejoin="round" stroke-width="1.5"/>
        </g>
        <g id="g2171" transform="translate(13.078 7.202)">
          <path id="path2173" d="M-31.27-155.043c.866-2.04,1.748-4.372.514-6.874-.81-1.645-2.686-.719-1.876.925l.243.491" transform="translate(32.831 162.781)" fill="none" stroke="#97d700" stroke-linecap="round" stroke-linejoin="round" stroke-width="1.5"/>
        </g>
        <g id="g2175" transform="translate(21.047 3.472)">
          <path id="path2177" d="M-45.9,0l-2.291,9.55" transform="translate(48.187)" fill="none" stroke="#97d700" stroke-linecap="round" stroke-linejoin="round" stroke-width="1.5"/>
        </g>
        <g id="g2179" transform="translate(11.076 5.711)">
          <path id="path2181" d="M0-86.569v-3.639a.683.683,0,0,1,.681-.681H6.024a.683.683,0,0,1,.681.681v8.887" transform="translate(0 90.889)" fill="none" stroke="#97d700" stroke-linecap="round" stroke-linejoin="round" stroke-width="1.5"/>
        </g>
        <g id="g2183" transform="translate(0.475 15.279)">
          <path id="path2185" d="M-315.576,0h-13.149a.559.559,0,0,0-.445.295l-2.12,4.159c-.081.162-.016.295.145.295h12.856a.563.563,0,0,0,.444-.295Z" transform="translate(331.325)" fill="none" stroke="#97d700" stroke-linecap="round" stroke-linejoin="round" stroke-width="1.5"/>
        </g>
        <g id="g2187" transform="translate(16.225 15.279)">
          <path id="path2189" d="M-148.421-95.1l-4.693,0a.565.565,0,0,1-.446-.295l-2.269-4.453h13.151a.559.559,0,0,1,.444.295l2.12,4.159c.083.162.016.295-.145.295l-5.966,0" transform="translate(155.828 99.849)" fill="none" stroke="#97d700" stroke-linecap="round" stroke-linejoin="round" stroke-width="1.5"/>
        </g>
        <g id="g2191" transform="translate(1.881 20.027)">
          <path id="path2193" d="M0-113.181v-5.648m28.687,0v11.3a.3.3,0,0,1-.3.3H.3a.3.3,0,0,1-.3-.3v-3.454" transform="translate(0 118.829)" fill="none" stroke="#97d700" stroke-linecap="round" stroke-linejoin="round" stroke-width="1.5"/>
        </g>
        <g id="g2195" transform="translate(16.225 15.279)">
          <path id="path2197" d="M0,0V16.347" transform="translate(0)" fill="none" stroke="#97d700" stroke-linecap="round" stroke-linejoin="round" stroke-width="1.5"/>
        </g>
      </g>
    </g>
  </g>
</svg>
