<svg xmlns="http://www.w3.org/2000/svg" xmlns:xlink="http://www.w3.org/1999/xlink" width="650" height="552" viewBox="0 0 650 552">
  <defs>
    <clipPath id="clip-path">
      <rect id="Rectangle_4234" data-name="Rectangle 4234" width="650" height="552" transform="translate(70)" fill="#fff"/>
    </clipPath>
    <clipPath id="clip-path-2">
      <rect id="Rectangle_2836" data-name="Rectangle 2836" width="720" height="544.148" fill="#97d700"/>
    </clipPath>
  </defs>
  <g id="Mask_Group_236" data-name="Mask Group 236" transform="translate(-70)" clip-path="url(#clip-path)">
    <g id="Group_69406" data-name="Group 69406" transform="translate(0 7.852)" opacity="0.2">
      <g id="Group_32751" data-name="Group 32751" clip-path="url(#clip-path-2)">
        <path id="Path_7708" data-name="Path 7708" d="M2.2,292.448v6.2a95.142,95.142,0,0,0,94.832,94.761h.183c25.92-.04,49.823-8.79,67.311-24.639,17.66-16,27.427-38.359,27.5-62.953l.215-10.259A263.885,263.885,0,0,1,455.747,42.19h.208A263.886,263.886,0,0,1,719.423,294.483H720v197.1c-.733.127-1.467.262-2.2.42V296.685h-.492l-.038-1.058A261.685,261.685,0,0,0,455.955,44.392h-.208A261.681,261.681,0,0,0,194.44,295.628l-.212,10.219c-.076,25.2-10.1,48.133-28.223,64.559-17.893,16.213-42.321,25.166-68.789,25.207h-.183A97.351,97.351,0,0,1,0,298.653v-5.811c.733-.121,1.467-.244,2.2-.394" transform="translate(0 -42.19)" fill="#97d700"/>
        <path id="Path_7709" data-name="Path 7709" d="M2.2,273.375v25.274a95.146,95.146,0,0,0,94.832,94.763h.183c25.92-.04,49.823-8.792,67.311-24.639,17.66-16,27.427-38.361,27.5-62.953l.215-10.259A263.885,263.885,0,0,1,455.747,42.19h.208A263.886,263.886,0,0,1,719.423,294.483H720V472.506c-.733.127-1.467.262-2.2.42V296.683h-.492l-.038-1.058A261.689,261.689,0,0,0,455.955,44.39h-.208A261.685,261.685,0,0,0,194.44,295.626l-.212,10.219c-.076,25.2-10.1,48.135-28.223,64.559-17.893,16.216-42.321,25.169-68.789,25.209h-.183A97.351,97.351,0,0,1,0,298.653V273.768c.733-.121,1.467-.244,2.2-.394" transform="translate(0 -23.117)" fill="#97d700"/>
        <path id="Path_7710" data-name="Path 7710" d="M2.2,254.3v44.347a95.142,95.142,0,0,0,94.832,94.76h.183c25.92-.04,49.823-8.79,67.311-24.637,17.66-16,27.427-38.361,27.5-62.953l.215-10.259A263.885,263.885,0,0,1,455.747,42.19h.208A263.886,263.886,0,0,1,719.423,294.483H720v158.95c-.733.127-1.467.262-2.2.42V296.683h-.492l-.038-1.058A261.689,261.689,0,0,0,455.955,44.39h-.208A261.685,261.685,0,0,0,194.44,295.626l-.212,10.219c-.076,25.2-10.1,48.135-28.223,64.559-17.893,16.213-42.321,25.169-68.789,25.209h-.183A97.351,97.351,0,0,1,0,298.653V254.7c.733-.121,1.467-.244,2.2-.394" transform="translate(0 -4.043)" fill="#97d700"/>
        <path id="Path_7711" data-name="Path 7711" d="M2.2,235.228v63.42a95.142,95.142,0,0,0,94.832,94.76h.183c25.92-.04,49.823-8.79,67.311-24.636,17.66-16.005,27.427-38.361,27.5-62.955l.215-10.257A263.885,263.885,0,0,1,455.747,42.19h.208A263.886,263.886,0,0,1,719.423,294.483H720V434.36c-.733.127-1.467.262-2.2.42v-138.1h-.492l-.038-1.058A261.689,261.689,0,0,0,455.955,44.39h-.208A261.685,261.685,0,0,0,194.44,295.626l-.212,10.219c-.076,25.2-10.1,48.135-28.223,64.559-17.893,16.213-42.321,25.166-68.789,25.207h-.183A97.348,97.348,0,0,1,0,298.651V235.622c.733-.121,1.467-.244,2.2-.394" transform="translate(0 15.03)" fill="#97d700"/>
        <path id="Path_7712" data-name="Path 7712" d="M2.2,216.157v82.494a95.142,95.142,0,0,0,94.832,94.76h.183c25.92-.04,49.823-8.79,67.311-24.639,17.66-16,27.427-38.359,27.5-62.953l.215-10.259A263.885,263.885,0,0,1,455.747,42.19h.208A263.886,263.886,0,0,1,719.423,294.483H720V415.289c-.733.127-1.467.262-2.2.42V296.685h-.492l-.038-1.058A261.685,261.685,0,0,0,455.955,44.392h-.208A261.681,261.681,0,0,0,194.44,295.628l-.212,10.219c-.076,25.2-10.1,48.135-28.223,64.559-17.893,16.213-42.321,25.166-68.789,25.207h-.183A97.349,97.349,0,0,1,0,298.653v-82.1c.733-.121,1.467-.244,2.2-.394" transform="translate(0 34.101)" fill="#97d700"/>
        <path id="Path_7713" data-name="Path 7713" d="M2.2,197.084V298.651a95.145,95.145,0,0,0,94.832,94.76h.183c25.92-.04,49.823-8.79,67.311-24.639,17.66-16,27.427-38.359,27.5-62.953l.215-10.259A263.885,263.885,0,0,1,455.747,42.19h.208A263.886,263.886,0,0,1,719.423,294.483H720V396.215c-.733.127-1.467.262-2.2.42V296.683h-.492l-.038-1.055A261.689,261.689,0,0,0,455.955,44.39h-.208A261.685,261.685,0,0,0,194.44,295.628l-.212,10.216c-.076,25.2-10.1,48.135-28.223,64.559-17.893,16.216-42.321,25.169-68.789,25.209h-.183A97.351,97.351,0,0,1,0,298.653V197.477c.733-.121,1.467-.244,2.2-.394" transform="translate(0 53.174)" fill="#97d700"/>
        <path id="Path_7714" data-name="Path 7714" d="M2.2,169.939V290.577a95.142,95.142,0,0,0,94.832,94.761h.183c25.92-.04,49.823-8.79,67.311-24.637,17.66-16,27.427-38.361,27.5-62.953l.215-10.259a263.885,263.885,0,0,1,263.5-253.371h.208A263.886,263.886,0,0,1,719.423,286.411H720V369.07c-.733.127-1.467.262-2.2.42V288.611h-.492l-.038-1.058A261.689,261.689,0,0,0,455.955,36.318h-.208A261.685,261.685,0,0,0,194.44,287.554l-.212,10.219c-.076,25.2-10.1,48.135-28.223,64.559-17.893,16.213-42.321,25.169-68.789,25.209h-.183A97.351,97.351,0,0,1,0,290.581V170.332c.733-.121,1.467-.244,2.2-.394" transform="translate(0 80.32)" fill="#97d700"/>
        <path id="Path_7715" data-name="Path 7715" d="M2.2,142.336V282.048a95.142,95.142,0,0,0,94.832,94.761h.183c25.92-.04,49.823-8.79,67.311-24.637,17.66-16.005,27.427-38.361,27.5-62.955l.215-10.257a263.885,263.885,0,0,1,263.5-253.371h.208A263.886,263.886,0,0,1,719.423,277.882H720v63.586c-.733.127-1.467.262-2.2.42V280.082h-.492l-.038-1.058A261.689,261.689,0,0,0,455.955,27.789h-.208A261.685,261.685,0,0,0,194.44,279.025l-.212,10.219c-.076,25.2-10.1,48.135-28.223,64.559-17.893,16.213-42.321,25.166-68.789,25.207h-.183A97.348,97.348,0,0,1,0,282.05V142.73c.733-.121,1.467-.244,2.2-.394" transform="translate(0 107.922)" fill="#97d700"/>
        <path id="Path_7716" data-name="Path 7716" d="M2.2,114.735V273.52A95.142,95.142,0,0,0,97.032,368.28h.183c25.92-.04,49.823-8.79,67.311-24.639,17.66-16,27.427-38.359,27.5-62.953l.215-10.259a263.889,263.889,0,0,1,263.5-253.371h.208a263.89,263.89,0,0,1,263.469,252.3H720v44.513c-.733.127-1.467.262-2.2.42V271.554h-.492l-.038-1.058A261.685,261.685,0,0,0,455.955,19.261h-.208A261.681,261.681,0,0,0,194.44,270.5l-.212,10.219c-.076,25.2-10.1,48.135-28.223,64.559-17.893,16.213-42.321,25.166-68.789,25.207h-.183A97.349,97.349,0,0,1,0,273.522V115.129c.733-.121,1.467-.244,2.2-.394" transform="translate(0 135.523)" fill="#97d700"/>
        <path id="Path_7717" data-name="Path 7717" d="M2.2,87.132V264.99a95.144,95.144,0,0,0,94.832,94.76h.183c25.92-.04,49.823-8.79,67.311-24.639,17.66-16,27.427-38.359,27.5-62.953l.215-10.259A263.885,263.885,0,0,1,455.747,8.529h.208A263.886,263.886,0,0,1,719.423,260.822H720v25.441c-.733.127-1.467.262-2.2.42V263.022h-.492l-.038-1.055A261.685,261.685,0,0,0,455.955,10.732h-.208A261.681,261.681,0,0,0,194.44,261.967l-.212,10.219c-.076,25.2-10.1,48.133-28.223,64.556-17.893,16.216-42.321,25.169-68.789,25.209h-.183A97.351,97.351,0,0,1,0,264.992V87.526c.733-.121,1.467-.244,2.2-.394" transform="translate(0 163.126)" fill="#97d700"/>
        <path id="Path_7718" data-name="Path 7718" d="M2.2,59.529V256.458a95.142,95.142,0,0,0,94.832,94.761h.183c25.92-.038,49.823-8.79,67.311-24.637,17.66-16,27.427-38.361,27.5-62.953l.215-10.259A263.885,263.885,0,0,1,455.747,0h.208A263.886,263.886,0,0,1,719.423,252.292H720v6.368c-.733.127-1.467.262-2.2.42v-4.588h-.492l-.038-1.058A261.689,261.689,0,0,0,455.955,2.2h-.208A261.685,261.685,0,0,0,194.44,253.435l-.212,10.219c-.076,25.2-10.1,48.135-28.223,64.559-17.893,16.216-42.321,25.169-68.789,25.209h-.183A97.351,97.351,0,0,1,0,256.462V59.922c.733-.121,1.467-.244,2.2-.394" transform="translate(0 190.729)" fill="#97d700"/>
      </g>
    </g>
  </g>
</svg>
