<svg xmlns="http://www.w3.org/2000/svg" width="15.507" height="15.507" viewBox="0 0 15.507 15.507">
  <g id="Group_5441" data-name="Group 5441" transform="translate(-1784 -501)">
    <path id="Path_1734" data-name="Path 1734" d="M29.7,60.912a.909.909,0,1,0,.909.909.909.909,0,0,0-.909-.909" transform="translate(1766.163 442.857)" fill="#97D700"/>
    <path id="Path_1735" data-name="Path 1735" d="M16.744,63.572a3.819,3.819,0,1,0,3.819,3.819,3.823,3.823,0,0,0-3.819-3.819m0,6.265a2.446,2.446,0,1,1,2.446-2.446,2.449,2.449,0,0,1-2.446,2.446" transform="translate(1775.073 441.363)" fill="#97D700"/>
    <path id="Path_1736" data-name="Path 1736" d="M14.651,70.1H8.46A4.664,4.664,0,0,1,3.8,65.443V59.252A4.663,4.663,0,0,1,8.46,54.594h6.191a4.663,4.663,0,0,1,4.658,4.658v6.191A4.664,4.664,0,0,1,14.651,70.1M8.46,56.053a3.2,3.2,0,0,0-3.2,3.2v6.191a3.2,3.2,0,0,0,3.2,3.2h6.191a3.2,3.2,0,0,0,3.2-3.2V59.252a3.2,3.2,0,0,0-3.2-3.2Z" transform="translate(1780.198 446.406)" fill="#97D700"/>
  </g>
</svg>
