<svg xmlns="http://www.w3.org/2000/svg" xmlns:xlink="http://www.w3.org/1999/xlink" width="452" height="196" viewBox="0 0 452 196">
  <defs>
    <clipPath id="clip-path">
      <rect id="Rectangle_4234" data-name="Rectangle 4234" width="452" height="196" transform="translate(926.811 696.7)" fill="#fff"/>
    </clipPath>
    <clipPath id="clip-path-2">
      <rect id="Rectangle_2836" data-name="Rectangle 2836" width="634.273" height="259.435" fill="#97d700"/>
    </clipPath>
  </defs>
  <g id="Mask_Group_236" data-name="Mask Group 236" transform="translate(-926.811 -696.7)" clip-path="url(#clip-path)">
    <g id="Group_69406" data-name="Group 69406" transform="translate(926.891 696.746)" opacity="0.3">
      <g id="Group_32751" data-name="Group 32751" clip-path="url(#clip-path-2)">
        <path id="Path_7708" data-name="Path 7708" d="M1.938,137.331v-2.957c.093-24.874,37.57-45.142,83.541-45.179h.162c22.834.019,43.891,4.191,59.3,11.747,15.557,7.63,24.162,18.289,24.226,30.014l.189,4.891c2.283,31.677,26.4,61.488,67.9,83.952,43.867,23.742,102.189,36.828,164.226,36.849h.183c62.043-.021,120.368-13.107,164.234-36.849,41.285-22.344,65.364-51.959,67.865-83.438h.508V42.39c-.646-.061-1.292-.125-1.938-.2v93.121H631.9l-.033.5c-2.265,31.4-26.179,60.966-67.339,83.241C521.03,242.6,463.191,255.577,401.666,255.6h-.183c-61.517-.02-119.354-13-162.857-36.541-41.159-22.276-65.072-51.838-67.337-83.241l-.187-4.872c-.067-12.015-8.9-22.948-24.863-30.78-15.762-7.73-37.282-12-60.6-12.018h-.162C38.441,88.185.095,108.922,0,134.373v2.771c.646.058,1.292.116,1.938.188" transform="translate(0 2.788)" fill="#97d700"/>
        <path id="Path_7709" data-name="Path 7709" d="M1.938,137.331v-12.05c.093-24.874,37.57-45.142,83.541-45.18h.162c22.834.019,43.891,4.192,59.3,11.747,15.557,7.63,24.162,18.29,24.226,30.014l.189,4.891c2.283,31.677,26.4,61.488,67.9,83.951,43.865,23.741,102.189,36.828,164.226,36.849h.183c62.043-.021,120.368-13.108,164.234-36.849,41.285-22.344,65.364-51.957,67.865-83.438h.508V42.39c-.646-.061-1.292-.125-1.938-.2v84.028H631.9l-.033.5c-2.265,31.4-26.179,60.965-67.339,83.24-43.5,23.543-101.338,36.521-162.862,36.542h-.183c-61.519-.021-119.356-13-162.857-36.542-41.159-22.276-65.072-51.838-67.337-83.24l-.187-4.872c-.067-12.016-8.9-22.949-24.863-30.78-15.762-7.731-37.282-12-60.6-12.019h-.162C38.441,79.091.095,99.829,0,125.279v11.864c.646.058,1.292.116,1.938.188" transform="translate(0 2.788)" fill="#97d700"/>
        <path id="Path_7710" data-name="Path 7710" d="M1.938,137.331V116.188c.093-24.874,37.57-45.142,83.541-45.179h.162c22.834.019,43.891,4.191,59.3,11.746,15.557,7.63,24.162,18.29,24.226,30.014l.189,4.891c2.283,31.677,26.4,61.488,67.9,83.951,43.865,23.742,102.189,36.828,164.226,36.849h.183c62.043-.021,120.368-13.107,164.234-36.849,41.285-22.344,65.364-51.957,67.865-83.438h.508V42.39c-.646-.061-1.292-.125-1.938-.2v74.935H631.9l-.033.5c-2.265,31.4-26.179,60.965-67.339,83.24-43.5,23.543-101.338,36.521-162.862,36.542h-.183c-61.519-.021-119.356-13-162.857-36.542-41.159-22.276-65.072-51.837-67.337-83.24l-.187-4.872c-.067-12.015-8.9-22.949-24.863-30.78-15.762-7.73-37.282-12-60.6-12.019h-.162C38.441,70,.095,90.735,0,116.185v20.958c.646.058,1.292.116,1.938.188" transform="translate(0 2.788)" fill="#97d700"/>
        <path id="Path_7711" data-name="Path 7711" d="M1.938,137.331V107.094c.093-24.874,37.57-45.142,83.541-45.179h.162c22.834.019,43.891,4.191,59.3,11.746,15.557,7.631,24.162,18.29,24.226,30.015l.189,4.89c2.283,31.677,26.4,61.489,67.9,83.952,43.865,23.742,102.189,36.828,164.226,36.849h.183c62.043-.021,120.368-13.107,164.234-36.849,41.285-22.343,65.364-51.957,67.865-83.438h.508V42.39c-.646-.061-1.292-.125-1.938-.2v65.841H631.9l-.033.5c-2.265,31.4-26.179,60.965-67.339,83.24-43.5,23.543-101.338,36.521-162.862,36.542h-.183c-61.519-.021-119.356-13-162.857-36.542-41.159-22.276-65.072-51.837-67.337-83.24l-.187-4.872c-.067-12.015-8.9-22.949-24.863-30.78-15.762-7.73-37.282-12-60.6-12.018h-.162C38.441,60.9.095,81.641,0,107.093v30.051c.646.058,1.292.116,1.938.188" transform="translate(0 2.788)" fill="#97d700"/>
        <path id="Path_7712" data-name="Path 7712" d="M1.938,137.331V98c.093-24.874,37.57-45.142,83.541-45.179h.162c22.834.019,43.891,4.191,59.3,11.747,15.557,7.63,24.162,18.289,24.226,30.014l.189,4.891c2.283,31.677,26.4,61.488,67.9,83.952,43.865,23.74,102.189,36.828,164.226,36.849h.183c62.043-.021,120.368-13.108,164.234-36.849,41.285-22.344,65.364-51.959,67.865-83.438h.508V42.39c-.646-.061-1.292-.125-1.938-.2V98.937H631.9l-.033.5c-2.265,31.4-26.179,60.966-67.339,83.242-43.5,23.542-101.338,36.521-162.862,36.541h-.183c-61.519-.02-119.356-13-162.857-36.541-41.159-22.276-65.072-51.838-67.337-83.242L171.1,94.57c-.067-12.015-8.9-22.949-24.863-30.78-15.762-7.73-37.282-12-60.6-12.018h-.162C38.441,51.81.095,72.549,0,98v39.144c.646.058,1.292.116,1.938.188" transform="translate(0 2.788)" fill="#97d700"/>
        <path id="Path_7713" data-name="Path 7713" d="M1.938,137.331V88.907c.093-24.873,37.57-45.141,83.541-45.179h.162c22.834.019,43.891,4.191,59.3,11.747,15.557,7.63,24.162,18.289,24.226,30.014l.189,4.891c2.283,31.677,26.4,61.488,67.9,83.952,43.865,23.74,102.189,36.828,164.226,36.849h.183c62.043-.021,120.368-13.108,164.234-36.849,41.285-22.344,65.364-51.959,67.865-83.438h.508V42.39c-.646-.061-1.292-.125-1.938-.2V89.845H631.9l-.033.5c-2.265,31.4-26.179,60.966-67.339,83.242-43.5,23.543-101.338,36.521-162.862,36.542h-.183c-61.519-.021-119.356-13-162.857-36.542-41.159-22.276-65.072-51.838-67.337-83.242l-.187-4.871c-.067-12.016-8.9-22.949-24.863-30.78-15.762-7.731-37.282-12-60.6-12.019h-.162C38.441,42.718.095,63.455,0,88.906v48.238c.646.058,1.292.116,1.938.188" transform="translate(0 2.788)" fill="#97d700"/>
        <path id="Path_7714" data-name="Path 7714" d="M1.938,137.864V80.347c.093-24.874,37.57-45.142,83.541-45.179h.162c22.834.019,43.891,4.191,59.3,11.746,15.557,7.63,24.162,18.29,24.226,30.014l.189,4.891c2.283,31.677,26.4,61.488,67.9,83.952,43.865,23.742,102.189,36.828,164.226,36.849h.183c62.043-.021,120.368-13.107,164.234-36.849,41.285-22.344,65.364-51.957,67.865-83.438h.508V42.924c-.646-.061-1.292-.125-1.938-.2V81.285H631.9l-.033.5c-2.265,31.4-26.179,60.965-67.339,83.24-43.5,23.543-101.338,36.521-162.862,36.542h-.183c-61.519-.021-119.356-13-162.857-36.542-41.159-22.276-65.072-51.837-67.337-83.24l-.187-4.872c-.067-12.015-8.9-22.949-24.863-30.78-15.762-7.73-37.282-12-60.6-12.019h-.162C38.441,34.157.095,54.895,0,80.345v57.332c.646.058,1.292.116,1.938.188" transform="translate(0 2.254)" fill="#97d700"/>
        <path id="Path_7715" data-name="Path 7715" d="M1.938,138.428V71.817c.093-24.874,37.57-45.142,83.541-45.179h.162c22.834.019,43.891,4.191,59.3,11.746,15.557,7.631,24.162,18.29,24.226,30.015l.189,4.89c2.283,31.677,26.4,61.489,67.9,83.952,43.865,23.742,102.189,36.828,164.226,36.849h.183c62.043-.021,120.368-13.107,164.234-36.849,41.285-22.343,65.364-51.957,67.865-83.438h.508V43.487c-.646-.061-1.292-.125-1.938-.2V72.754H631.9l-.033.5c-2.265,31.4-26.179,60.965-67.339,83.24-43.5,23.543-101.338,36.521-162.862,36.542h-.183c-61.519-.021-119.356-13-162.857-36.542-41.159-22.276-65.072-51.837-67.337-83.24l-.187-4.872c-.067-12.015-8.9-22.949-24.863-30.78-15.762-7.73-37.282-12-60.6-12.018h-.162C38.441,25.627.095,46.365,0,71.816V138.24c.646.058,1.292.116,1.938.188" transform="translate(0 1.691)" fill="#97d700"/>
        <path id="Path_7716" data-name="Path 7716" d="M1.938,138.992v-75.7c.093-24.874,37.57-45.142,83.541-45.179h.162c22.834.019,43.891,4.191,59.3,11.747,15.557,7.63,24.162,18.289,24.226,30.014l.189,4.891c2.283,31.676,26.4,61.488,67.9,83.95,43.865,23.742,102.189,36.829,164.226,36.85h.183c62.043-.021,120.368-13.108,164.234-36.85,41.285-22.343,65.364-51.957,67.865-83.438h.508V44.051c-.646-.061-1.292-.125-1.938-.2V64.224H631.9l-.033.5c-2.265,31.4-26.179,60.965-67.339,83.242-43.5,23.542-101.338,36.52-162.862,36.541h-.183c-61.519-.021-119.356-13-162.857-36.541-41.159-22.277-65.072-51.838-67.337-83.242l-.187-4.872c-.067-12.015-8.9-22.949-24.863-30.78-15.762-7.73-37.282-12-60.6-12.018h-.162C38.441,17.1.095,37.836,0,63.286V138.8c.646.058,1.292.116,1.938.188" transform="translate(0 1.127)" fill="#97d700"/>
        <path id="Path_7717" data-name="Path 7717" d="M1.938,139.555v-84.8C2.031,29.884,39.508,9.616,85.479,9.578h.162c22.834.019,43.891,4.191,59.3,11.747,15.557,7.63,24.162,18.289,24.226,30.014l.189,4.891c2.283,31.677,26.4,61.488,67.9,83.952,43.865,23.741,102.189,36.828,164.226,36.849h.183c62.043-.021,120.368-13.108,164.234-36.849,41.285-22.344,65.364-51.959,67.865-83.438h.508V44.615c-.646-.061-1.292-.125-1.938-.2V55.7H631.9l-.033.5c-2.265,31.4-26.179,60.966-67.339,83.242-43.5,23.543-101.338,36.521-162.862,36.541h-.183c-61.519-.02-119.356-13-162.857-36.541C197.468,117.164,173.555,87.6,171.289,56.2l-.187-4.872c-.067-12.015-8.9-22.948-24.863-30.779-15.762-7.731-37.282-12-60.6-12.019h-.162C38.441,8.568.095,29.306,0,54.756v84.611c.646.058,1.292.116,1.938.188" transform="translate(0 0.564)" fill="#97d700"/>
        <path id="Path_7718" data-name="Path 7718" d="M1.938,140.119V46.228C2.031,21.355,39.508,1.086,85.479,1.049h.162c22.834.018,43.891,4.191,59.3,11.746,15.557,7.63,24.162,18.29,24.226,30.014l.189,4.891c2.283,31.677,26.4,61.488,67.9,83.952,43.865,23.74,102.189,36.828,164.226,36.849h.183c62.043-.021,120.368-13.108,164.234-36.849,41.285-22.344,65.364-51.957,67.865-83.438h.508V45.178c-.646-.061-1.292-.125-1.938-.2v2.188H631.9l-.033.5c-2.265,31.4-26.179,60.965-67.339,83.24-43.5,23.543-101.338,36.521-162.862,36.542h-.183c-61.519-.021-119.356-13-162.857-36.542-41.159-22.276-65.072-51.837-67.337-83.24L171.1,42.8c-.067-12.016-8.9-22.949-24.863-30.78C130.477,4.287,108.957.018,85.641,0h-.162C38.441.038.095,20.776,0,46.226v93.705c.646.058,1.292.116,1.938.188" transform="translate(0 0)" fill="#97d700"/>
      </g>
    </g>
  </g>
</svg>
