<svg xmlns="http://www.w3.org/2000/svg" xmlns:xlink="http://www.w3.org/1999/xlink" width="312.543" height="236.208" viewBox="0 0 312.543 236.208">
  <defs>
    <clipPath id="clip-path">
      <rect id="Rectangle_9990" data-name="Rectangle 9990" width="312.543" height="236.208" fill="#97d700"/>
    </clipPath>
  </defs>
  <g id="Group_70121" data-name="Group 70121" opacity="0.3">
    <g id="Group_70120" data-name="Group 70120" clip-path="url(#clip-path)">
      <path id="Path_97449" data-name="Path 97449" d="M.955,128.813v-2.693A41.3,41.3,0,0,1,42.121,84.986h.08C53.452,85,63.828,88.8,71.419,95.681a36.51,36.51,0,0,1,11.938,27.327l.093,4.453A114.549,114.549,0,0,0,197.834,237.447h.09A114.55,114.55,0,0,0,312.293,127.93h.25V42.372c-.318-.055-.637-.114-.955-.182v84.784h-.214l-.016.459A113.594,113.594,0,0,1,197.924,236.491h-.09A113.593,113.593,0,0,1,84.4,127.433L84.312,123A37.455,37.455,0,0,0,72.061,94.973C64.294,87.935,53.689,84.048,42.2,84.031h-.08A42.259,42.259,0,0,0,0,126.12v2.523c.318.052.637.106.955.171" transform="translate(0 -1.239)" fill="#97d700"/>
      <path id="Path_97450" data-name="Path 97450" d="M.955,128.813V117.842A41.3,41.3,0,0,1,42.121,76.707h.08c11.252.017,21.628,3.817,29.219,10.7a36.512,36.512,0,0,1,11.938,27.327l.093,4.453A114.549,114.549,0,0,0,197.834,229.168h.09A114.55,114.55,0,0,0,312.293,119.65h.25V42.372c-.318-.055-.637-.114-.955-.182V118.7h-.214l-.016.459A113.6,113.6,0,0,1,197.924,228.213h-.09A113.594,113.594,0,0,1,84.4,119.154l-.092-4.436A37.452,37.452,0,0,0,72.061,86.694C64.294,79.655,53.689,75.769,42.2,75.752h-.08A42.259,42.259,0,0,0,0,117.84v10.8c.318.052.637.106.955.171" transform="translate(0 -1.239)" fill="#97d700"/>
      <path id="Path_97451" data-name="Path 97451" d="M.955,128.813V109.563A41.3,41.3,0,0,1,42.121,68.428h.08c11.252.017,21.628,3.816,29.219,10.694A36.512,36.512,0,0,1,83.357,106.45l.093,4.453A114.549,114.549,0,0,0,197.834,220.888h.09A114.55,114.55,0,0,0,312.293,111.371h.25v-69c-.318-.055-.637-.114-.955-.182v68.226h-.214l-.016.459A113.6,113.6,0,0,1,197.924,219.933h-.09A113.594,113.594,0,0,1,84.4,110.875l-.092-4.436A37.454,37.454,0,0,0,72.061,78.415C64.294,71.377,53.689,67.49,42.2,67.472h-.08A42.259,42.259,0,0,0,0,109.561v19.082c.318.052.637.106.955.171" transform="translate(0 -1.239)" fill="#97d700"/>
      <path id="Path_97452" data-name="Path 97452" d="M.955,128.813v-27.53A41.3,41.3,0,0,1,42.121,60.149h.08c11.252.017,21.628,3.816,29.219,10.694A36.514,36.514,0,0,1,83.357,98.171l.093,4.452A114.549,114.549,0,0,0,197.834,212.609h.09A114.55,114.55,0,0,0,312.293,103.091h.25V42.372c-.318-.055-.637-.114-.955-.182v59.946h-.214l-.016.459A113.6,113.6,0,0,1,197.924,211.654h-.09A113.594,113.594,0,0,1,84.4,102.6l-.092-4.436A37.454,37.454,0,0,0,72.061,70.135C64.294,63.1,53.689,59.211,42.2,59.194h-.08A42.257,42.257,0,0,0,0,101.282v27.36c.318.052.637.106.955.171" transform="translate(0 -1.239)" fill="#97d700"/>
      <path id="Path_97453" data-name="Path 97453" d="M.955,128.813V93A41.3,41.3,0,0,1,42.121,51.869h.08c11.252.017,21.628,3.816,29.219,10.7A36.51,36.51,0,0,1,83.357,89.892l.093,4.453A114.549,114.549,0,0,0,197.834,204.33h.09A114.55,114.55,0,0,0,312.293,94.813h.25V42.372c-.318-.055-.637-.114-.955-.182V93.857h-.214l-.016.459A113.594,113.594,0,0,1,197.924,203.374h-.09A113.593,113.593,0,0,1,84.4,94.316l-.092-4.436A37.454,37.454,0,0,0,72.061,61.856C64.294,54.818,53.689,50.932,42.2,50.914h-.08A42.258,42.258,0,0,0,0,93v35.64c.318.052.637.106.955.171" transform="translate(0 -1.239)" fill="#97d700"/>
      <path id="Path_97454" data-name="Path 97454" d="M.955,128.813V84.724A41.3,41.3,0,0,1,42.121,43.59h.08c11.252.017,21.628,3.816,29.219,10.7A36.51,36.51,0,0,1,83.357,81.612l.093,4.453A114.549,114.549,0,0,0,197.834,196.051h.09A114.55,114.55,0,0,0,312.293,86.533h.25V42.372c-.318-.055-.637-.114-.955-.182V85.578h-.214l-.016.458A113.6,113.6,0,0,1,197.924,195.1h-.09A113.594,113.594,0,0,1,84.4,86.036L84.312,81.6A37.452,37.452,0,0,0,72.061,53.577C64.294,46.538,53.689,42.652,42.2,42.635h-.08A42.259,42.259,0,0,0,0,84.723v43.919c.318.052.637.106.955.171" transform="translate(0 -1.239)" fill="#97d700"/>
      <path id="Path_97455" data-name="Path 97455" d="M.955,128.576V76.208A41.3,41.3,0,0,1,42.121,35.074h.08c11.252.017,21.628,3.816,29.219,10.694A36.512,36.512,0,0,1,83.357,73.1l.093,4.453A114.549,114.549,0,0,0,197.834,187.534h.09A114.55,114.55,0,0,0,312.293,78.017h.25V42.135c-.318-.055-.637-.114-.955-.182V77.062h-.214l-.016.459A113.6,113.6,0,0,1,197.924,186.579h-.09A113.594,113.594,0,0,1,84.4,77.521l-.092-4.436A37.454,37.454,0,0,0,72.061,45.061C64.294,38.023,53.689,34.135,42.2,34.118h-.08A42.259,42.259,0,0,0,0,76.207v52.2c.318.052.637.106.955.171" transform="translate(0 -1.002)" fill="#97d700"/>
      <path id="Path_97456" data-name="Path 97456" d="M.955,128.326V67.678A41.3,41.3,0,0,1,42.121,26.544h.08c11.252.017,21.628,3.816,29.219,10.694A36.514,36.514,0,0,1,83.357,64.567l.093,4.452A114.549,114.549,0,0,0,197.834,179h.09A114.55,114.55,0,0,0,312.293,69.487h.25v-27.6c-.318-.055-.637-.114-.955-.182V68.532h-.214l-.016.459A113.6,113.6,0,0,1,197.924,178.049h-.09A113.594,113.594,0,0,1,84.4,68.991l-.092-4.436A37.454,37.454,0,0,0,72.061,36.531C64.294,29.493,53.689,25.606,42.2,25.589h-.08A42.257,42.257,0,0,0,0,67.678v60.477c.318.052.637.106.955.171" transform="translate(0 -0.752)" fill="#97d700"/>
      <path id="Path_97457" data-name="Path 97457" d="M.955,128.075V59.148A41.3,41.3,0,0,1,42.121,18.014h.08c11.252.017,21.628,3.816,29.219,10.7A36.51,36.51,0,0,1,83.357,56.037l.093,4.453A114.551,114.551,0,0,0,197.834,170.475h.09A114.551,114.551,0,0,0,312.293,60.957h.25V41.634c-.318-.055-.637-.114-.955-.182V60h-.214l-.016.459A113.594,113.594,0,0,1,197.924,169.519h-.09A113.593,113.593,0,0,1,84.4,60.461l-.092-4.436A37.454,37.454,0,0,0,72.061,28C64.294,20.963,53.689,17.076,42.2,17.059h-.08A42.258,42.258,0,0,0,0,59.148V127.9c.318.052.637.106.955.171" transform="translate(0 -0.501)" fill="#97d700"/>
      <path id="Path_97458" data-name="Path 97458" d="M.955,127.824V50.618A41.3,41.3,0,0,1,42.121,9.484h.08c11.252.017,21.628,3.816,29.219,10.7A36.51,36.51,0,0,1,83.357,47.507l.093,4.453A114.094,114.094,0,0,0,116.911,128.4a113.8,113.8,0,0,0,80.923,33.55h.09a113.808,113.808,0,0,0,80.927-33.55,114.091,114.091,0,0,0,33.441-75.967h.25V41.384c-.318-.055-.637-.114-.955-.182V51.473h-.214l-.016.458a113.139,113.139,0,0,1-33.182,75.789,112.85,112.85,0,0,1-80.252,33.269h-.09a112.85,112.85,0,0,1-80.249-33.269A113.142,113.142,0,0,1,84.4,51.931l-.092-4.436A37.452,37.452,0,0,0,72.061,19.472C64.294,12.433,53.689,8.546,42.2,8.529h-.08A42.259,42.259,0,0,0,0,50.618v77.036c.318.052.637.106.955.171" transform="translate(0 -0.25)" fill="#97d700"/>
      <path id="Path_97459" data-name="Path 97459" d="M.955,127.574V42.089A41.3,41.3,0,0,1,42.121.955h.08C53.452.972,63.828,4.771,71.419,11.649A36.512,36.512,0,0,1,83.357,38.977l.093,4.453a114.094,114.094,0,0,0,33.461,76.435,113.8,113.8,0,0,0,80.923,33.55h.09a113.808,113.808,0,0,0,80.927-33.55A114.09,114.09,0,0,0,312.293,43.9h.25V41.133c-.318-.055-.637-.114-.955-.182v1.992h-.214l-.016.459a113.137,113.137,0,0,1-33.182,75.788,112.855,112.855,0,0,1-80.252,33.27h-.09a112.855,112.855,0,0,1-80.249-33.27A113.14,113.14,0,0,1,84.4,43.4l-.092-4.436A37.452,37.452,0,0,0,72.061,10.942C64.294,3.9,53.689.016,42.2,0h-.08A42.259,42.259,0,0,0,0,42.088V127.4c.318.052.637.106.955.171" transform="translate(0 0)" fill="#97d700"/>
    </g>
  </g>
</svg>
