<svg xmlns="http://www.w3.org/2000/svg" xmlns:xlink="http://www.w3.org/1999/xlink" width="424" height="362" viewBox="0 0 424 362">
  <defs>
    <clipPath id="clip-path">
      <rect id="Rectangle_4234" data-name="Rectangle 4234" width="424" height="362" transform="translate(0 0.088)" fill="#fff"/>
    </clipPath>
    <clipPath id="clip-path-2">
      <rect id="Rectangle_2836" data-name="Rectangle 2836" width="470.473" height="355.565" fill="#97d700"/>
    </clipPath>
  </defs>
  <g id="Mask_Group_236" data-name="Mask Group 236" transform="translate(0 -0.088)" clip-path="url(#clip-path)">
    <g id="Group_69406" data-name="Group 69406" transform="translate(-45.74 5.822)" opacity="0.2">
      <g id="Group_32751" data-name="Group 32751" clip-path="url(#clip-path-2)">
        <path id="Path_7708" data-name="Path 7708" d="M1.438,205.718v4.053A62.169,62.169,0,0,0,63.4,271.691h.12c16.937-.026,32.556-5.744,43.983-16.1a54.959,54.959,0,0,0,17.97-41.136l.14-6.7A172.432,172.432,0,0,1,297.8,42.19h.136A172.432,172.432,0,0,1,470.1,207.047h.377v128.79c-.479.083-.958.171-1.438.275V208.486h-.321l-.025-.691A170.994,170.994,0,0,0,297.937,43.629H297.8A170.992,170.992,0,0,0,127.054,207.8l-.139,6.677a56.382,56.382,0,0,1-18.442,42.185C96.782,267.252,80.819,273.1,63.524,273.128H63.4A63.612,63.612,0,0,1,0,209.772v-3.8c.479-.079.958-.159,1.438-.257" transform="translate(0 -42.19)" fill="#97d700"/>
        <path id="Path_7709" data-name="Path 7709" d="M1.438,193.254v16.515A62.172,62.172,0,0,0,63.4,271.69h.12c16.937-.026,32.556-5.745,43.983-16.1a54.962,54.962,0,0,0,17.97-41.136l.14-6.7A172.432,172.432,0,0,1,297.8,42.19h.136A172.432,172.432,0,0,1,470.1,207.047h.377V323.374c-.479.083-.958.171-1.438.275V208.485h-.321l-.025-.691A171,171,0,0,0,297.937,43.628H297.8A170.994,170.994,0,0,0,127.054,207.794l-.139,6.677a56.377,56.377,0,0,1-18.442,42.185c-11.692,10.6-27.654,16.446-44.949,16.472H63.4A63.612,63.612,0,0,1,0,209.772V193.512c.479-.079.958-.159,1.438-.257" transform="translate(0 -29.727)" fill="#97d700"/>
        <path id="Path_7710" data-name="Path 7710" d="M1.438,180.791v28.978A62.169,62.169,0,0,0,63.4,271.689h.12c16.937-.026,32.556-5.744,43.983-16.1a54.961,54.961,0,0,0,17.97-41.136l.14-6.7A172.432,172.432,0,0,1,297.8,42.19h.136A172.432,172.432,0,0,1,470.1,207.047h.377V310.911c-.479.083-.958.171-1.438.275v-102.7h-.321l-.025-.691A171,171,0,0,0,297.937,43.628H297.8A170.994,170.994,0,0,0,127.054,207.794l-.139,6.677a56.379,56.379,0,0,1-18.442,42.185C96.782,267.25,80.819,273.1,63.524,273.128H63.4A63.612,63.612,0,0,1,0,209.772V181.048c.479-.079.958-.159,1.438-.257" transform="translate(0 -17.264)" fill="#97d700"/>
        <path id="Path_7711" data-name="Path 7711" d="M1.438,168.328v41.441A62.169,62.169,0,0,0,63.4,271.689h.12c16.937-.026,32.556-5.744,43.983-16.1a54.965,54.965,0,0,0,17.97-41.137l.14-6.7A172.432,172.432,0,0,1,297.8,42.19h.136A172.432,172.432,0,0,1,470.1,207.047h.377v91.4c-.479.083-.958.171-1.438.275V208.485h-.321l-.025-.691A171,171,0,0,0,297.937,43.628H297.8A170.994,170.994,0,0,0,127.054,207.794l-.139,6.677a56.379,56.379,0,0,1-18.442,42.185C96.782,267.25,80.819,273.1,63.524,273.127H63.4A63.61,63.61,0,0,1,0,209.771V168.585c.479-.079.958-.159,1.438-.257" transform="translate(0 -4.801)" fill="#97d700"/>
        <path id="Path_7712" data-name="Path 7712" d="M1.438,155.866v53.9A62.169,62.169,0,0,0,63.4,271.69h.12c16.937-.026,32.556-5.744,43.983-16.1a54.959,54.959,0,0,0,17.97-41.136l.14-6.7A172.432,172.432,0,0,1,297.8,42.19h.136A172.432,172.432,0,0,1,470.1,207.047h.377v78.939c-.479.083-.958.171-1.438.275V208.486h-.321l-.025-.691A170.994,170.994,0,0,0,297.937,43.629H297.8A170.991,170.991,0,0,0,127.054,207.8l-.139,6.677a56.379,56.379,0,0,1-18.442,42.185C96.782,267.252,80.819,273.1,63.524,273.128H63.4A63.611,63.611,0,0,1,0,209.772V156.123c.479-.079.958-.159,1.438-.257" transform="translate(0 7.661)" fill="#97d700"/>
        <path id="Path_7713" data-name="Path 7713" d="M1.438,143.4v66.367A62.171,62.171,0,0,0,63.4,271.69h.12c16.937-.026,32.556-5.744,43.983-16.1a54.959,54.959,0,0,0,17.97-41.136l.14-6.7A172.432,172.432,0,0,1,297.8,42.19h.136A172.432,172.432,0,0,1,470.1,207.047h.377v66.476c-.479.083-.958.171-1.438.275V208.485h-.321l-.025-.69A171,171,0,0,0,297.937,43.628H297.8A170.994,170.994,0,0,0,127.054,207.8l-.139,6.676a56.377,56.377,0,0,1-18.442,42.185c-11.692,10.6-27.654,16.446-44.949,16.472H63.4A63.612,63.612,0,0,1,0,209.772V143.66c.479-.079.958-.159,1.438-.257" transform="translate(0 20.124)" fill="#97d700"/>
        <path id="Path_7714" data-name="Path 7714" d="M1.438,122.868V201.7A62.169,62.169,0,0,0,63.4,263.617h.12c16.937-.026,32.556-5.744,43.983-16.1a54.961,54.961,0,0,0,17.97-41.136l.14-6.7A172.432,172.432,0,0,1,297.8,34.118h.136A172.432,172.432,0,0,1,470.1,198.975h.377v54.012c-.479.083-.958.171-1.438.275V200.413h-.321l-.025-.691A171,171,0,0,0,297.937,35.556H297.8A170.994,170.994,0,0,0,127.054,199.722l-.139,6.677a56.379,56.379,0,0,1-18.442,42.185c-11.692,10.594-27.654,16.446-44.949,16.472H63.4A63.612,63.612,0,0,1,0,201.7V123.125c.479-.079.958-.159,1.438-.257" transform="translate(0 40.66)" fill="#97d700"/>
        <path id="Path_7715" data-name="Path 7715" d="M1.438,101.876v91.292A62.169,62.169,0,0,0,63.4,255.088h.12c16.937-.026,32.556-5.744,43.983-16.1a54.964,54.964,0,0,0,17.97-41.137l.14-6.7A172.432,172.432,0,0,1,297.8,25.589h.136A172.432,172.432,0,0,1,470.1,190.446h.377V232c-.479.083-.958.171-1.438.275V191.884h-.321l-.025-.691A171,171,0,0,0,297.937,27.027H297.8A170.994,170.994,0,0,0,127.054,191.193l-.139,6.677a56.379,56.379,0,0,1-18.442,42.185C96.782,250.649,80.819,256.5,63.524,256.526H63.4A63.61,63.61,0,0,1,0,193.17V102.133c.479-.079.958-.159,1.438-.257" transform="translate(0 61.652)" fill="#97d700"/>
        <path id="Path_7716" data-name="Path 7716" d="M1.438,80.884V184.64A62.169,62.169,0,0,0,63.4,246.559h.12c16.937-.026,32.556-5.744,43.983-16.1a54.959,54.959,0,0,0,17.97-41.136l.14-6.7A172.434,172.434,0,0,1,297.8,17.059h.136A172.435,172.435,0,0,1,470.1,181.918h.377V211c-.479.083-.958.171-1.438.275V183.355h-.321l-.025-.691A170.994,170.994,0,0,0,297.937,18.5H297.8A170.992,170.992,0,0,0,127.054,182.664l-.139,6.677a56.379,56.379,0,0,1-18.442,42.185C96.782,242.121,80.819,247.971,63.524,248H63.4A63.611,63.611,0,0,1,0,184.641V81.141c.479-.079.958-.159,1.438-.257" transform="translate(0 82.643)" fill="#97d700"/>
        <path id="Path_7717" data-name="Path 7717" d="M1.438,59.891V176.11A62.17,62.17,0,0,0,63.4,238.029h.12c16.937-.026,32.556-5.744,43.983-16.1a54.959,54.959,0,0,0,17.97-41.136l.14-6.7A172.432,172.432,0,0,1,297.8,8.529h.136A172.432,172.432,0,0,1,470.1,173.386h.377V190.01c-.479.083-.958.171-1.438.275V174.824h-.321l-.025-.69A170.994,170.994,0,0,0,297.937,9.968H297.8A170.991,170.991,0,0,0,127.054,174.134l-.139,6.677a56.376,56.376,0,0,1-18.442,42.183c-11.692,10.6-27.654,16.446-44.949,16.472H63.4A63.612,63.612,0,0,1,0,176.111V60.148c.479-.079.958-.159,1.438-.257" transform="translate(0 103.636)" fill="#97d700"/>
        <path id="Path_7718" data-name="Path 7718" d="M1.438,38.9v128.68A62.169,62.169,0,0,0,63.4,229.5h.12c16.937-.025,32.556-5.744,43.983-16.1a54.961,54.961,0,0,0,17.97-41.136l.14-6.7A172.432,172.432,0,0,1,297.8,0h.136A172.432,172.432,0,0,1,470.1,164.856h.377v4.161c-.479.083-.958.171-1.438.275v-3h-.321l-.025-.691A171,171,0,0,0,297.937,1.437H297.8A170.994,170.994,0,0,0,127.054,165.6l-.139,6.677a56.377,56.377,0,0,1-18.442,42.185c-11.692,10.6-27.654,16.446-44.949,16.472H63.4A63.612,63.612,0,0,1,0,167.581V39.155C.479,39.076.958,39,1.438,38.9" transform="translate(0 124.63)" fill="#97d700"/>
      </g>
    </g>
  </g>
</svg>
