<svg xmlns="http://www.w3.org/2000/svg" width="21.816" height="21.856" viewBox="0 0 21.816 21.856">
  <path id="phone-call" d="M14.972,4.976A4.97,4.97,0,0,1,18.9,8.9M14.972,1a8.946,8.946,0,0,1,7.9,7.892m-.994,7.932v2.982a1.988,1.988,0,0,1-2.167,1.988,19.671,19.671,0,0,1-8.578-3.052,19.383,19.383,0,0,1-5.964-5.964A19.671,19.671,0,0,1,2.12,4.161,1.988,1.988,0,0,1,4.1,1.994H7.08A1.988,1.988,0,0,1,9.068,3.7a12.763,12.763,0,0,0,.7,2.793,1.988,1.988,0,0,1-.447,2.1L8.054,9.856a15.9,15.9,0,0,0,5.964,5.964l1.262-1.262a1.988,1.988,0,0,1,2.1-.447,12.763,12.763,0,0,0,2.793.7,1.988,1.988,0,0,1,1.71,2.018Z" transform="translate(-1.611 -0.448)" fill="none" stroke="#97d700" stroke-linecap="round" stroke-linejoin="round" stroke-width="1"/>
</svg>
