<svg xmlns="http://www.w3.org/2000/svg" width="31.304" height="28.309" viewBox="0 0 31.304 28.309">
  <g id="chiropractor" transform="translate(-9.25 -33.975)">
    <path id="Path_96726" data-name="Path 96726" d="M31.007,439.7h-20.4a.606.606,0,0,1-.606-.606V437.88a.606.606,0,0,1,.606-.606H39.2a.606.606,0,0,1,.606.606v1.212a.606.606,0,0,1-.606.606H36.527" transform="translate(0 -378.163)" fill="none" stroke="#00205b" stroke-linecap="round" stroke-linejoin="round" stroke-width="1.5"/>
    <line id="Line_275" data-name="Line 275" transform="translate(33.762 61.534)" fill="none" stroke="#00205b" stroke-linecap="round" stroke-linejoin="round" stroke-width="1.5"/>
    <path id="Path_96727" data-name="Path 96727" d="M105.743,242.141l-5.025-2.372-.819-.387a1.476,1.476,0,0,0-1.9.577h0a1.476,1.476,0,0,0,.561,2.054l4.861,2.646a.3.3,0,0,1-.008.536l-5.922,3H87.827a1.548,1.548,0,0,0-1.555,1.55,1.521,1.521,0,0,0,1.521,1.491h12.786a8.671,8.671,0,0,0,4.947-1.55h0a4.727,4.727,0,0,0,1.707-5.6l-.235-.6A2.486,2.486,0,0,0,105.743,242.141Z" transform="translate(-71.651 -192.126)" fill="none" stroke="#00205b" stroke-linecap="round" stroke-linejoin="round" stroke-width="1.5"/>
    <circle id="Ellipse_356" data-name="Ellipse 356" cx="2.6" cy="2.6" r="2.6" transform="translate(33.687 45.754)" fill="none" stroke="#00205b" stroke-linecap="round" stroke-linejoin="round" stroke-width="1.5"/>
    <circle id="Ellipse_357" data-name="Ellipse 357" cx="2.746" cy="2.746" r="2.746" transform="translate(13.723 34.725)" fill="none" stroke="#00205b" stroke-linecap="round" stroke-linejoin="round" stroke-width="1.5"/>
    <path id="Path_96728" data-name="Path 96728" d="M31.1,138.183l-1.47-.859a4.547,4.547,0,0,1-2.241-3.612l-.327-4.725a3.382,3.382,0,0,1,3.655-3.6h0a8.292,8.292,0,0,1,4.859,2.1l1.34,1.206,3.462,1.112a1.522,1.522,0,0,1,.79,2.309h0a1.522,1.522,0,0,1-1.632.614l-3.947-1.009-2.631-2.27a.3.3,0,0,0-.5.281l.841,4.851,2.645,1.375a2.793,2.793,0,0,1,1.5,2.478h0a2.793,2.793,0,0,1-2.793,2.793H26.654a1.521,1.521,0,0,1-1.521-1.491,1.548,1.548,0,0,1,1.555-1.55h5.936" transform="translate(-14.217 -85.155)" fill="none" stroke="#00205b" stroke-linecap="round" stroke-linejoin="round" stroke-width="1.5"/>
    <line id="Line_276" data-name="Line 276" x1="0.808" y2="2.341" transform="translate(24.396 44.566)" fill="none" stroke="#00205b" stroke-linecap="round" stroke-linejoin="round" stroke-width="1.5"/>
    <line id="Line_277" data-name="Line 277" x1="1.028" y2="2.341" transform="translate(28.037 47.858)" fill="none" stroke="#00205b" stroke-linecap="round" stroke-linejoin="round" stroke-width="1.5"/>
    <line id="Line_278" data-name="Line 278" x2="3.942" y2="2.672" transform="translate(25.842 56.069)" fill="none" stroke="#00205b" stroke-linecap="round" stroke-linejoin="round" stroke-width="1.5"/>
    <line id="Line_279" data-name="Line 279" x1="5.604" y1="0.188" transform="translate(13.481 49.234)" fill="none" stroke="#00205b" stroke-linecap="round" stroke-linejoin="round" stroke-width="1.5"/>
  </g>
</svg>
