<svg xmlns="http://www.w3.org/2000/svg" xmlns:xlink="http://www.w3.org/1999/xlink" width="513" height="411" viewBox="0 0 513 411">
  <defs>
    <clipPath id="clip-path">
      <rect id="Rectangle_4234" data-name="Rectangle 4234" width="513" height="411" transform="translate(927 697)" fill="#fff"/>
    </clipPath>
    <clipPath id="clip-path-2">
      <rect id="Rectangle_2836" data-name="Rectangle 2836" width="720" height="544.148" fill="#97d700"/>
    </clipPath>
  </defs>
  <g id="Mask_Group_236" data-name="Mask Group 236" transform="translate(-927 -697)" clip-path="url(#clip-path)">
    <g id="Group_69406" data-name="Group 69406" transform="translate(927 697)" opacity="0.3">
      <g id="Group_32751" data-name="Group 32751" clip-path="url(#clip-path-2)">
        <path id="Path_7708" data-name="Path 7708" d="M2.2,241.742v-6.2a95.142,95.142,0,0,1,94.832-94.761h.183c25.92.04,49.823,8.79,67.311,24.639,17.66,16,27.427,38.359,27.5,62.953l.215,10.259A263.885,263.885,0,0,0,455.747,492h.208A263.886,263.886,0,0,0,719.423,239.707H720V42.61c-.733-.127-1.467-.262-2.2-.42V237.5h-.492l-.038,1.058A261.685,261.685,0,0,1,455.955,489.8h-.208A261.681,261.681,0,0,1,194.44,238.562l-.212-10.219c-.076-25.2-10.1-48.133-28.223-64.559-17.893-16.213-42.321-25.166-68.789-25.207h-.183A97.351,97.351,0,0,0,0,235.537v5.811c.733.121,1.467.244,2.2.394" transform="translate(0 52.148)" fill="#97d700"/>
        <path id="Path_7709" data-name="Path 7709" d="M2.2,241.742V216.468a95.146,95.146,0,0,1,94.832-94.763h.183c25.92.04,49.823,8.792,67.311,24.639,17.66,16,27.427,38.361,27.5,62.953l.215,10.259a263.885,263.885,0,0,0,263.5,253.371h.208A263.886,263.886,0,0,0,719.423,220.634H720V42.61c-.733-.127-1.467-.262-2.2-.42V218.434h-.492l-.038,1.058A261.689,261.689,0,0,1,455.955,470.727h-.208A261.685,261.685,0,0,1,194.44,219.491l-.212-10.219c-.076-25.2-10.1-48.135-28.223-64.559-17.893-16.216-42.321-25.169-68.789-25.209h-.183A97.351,97.351,0,0,0,0,216.464v24.885c.733.121,1.467.244,2.2.394" transform="translate(0 52.148)" fill="#97d700"/>
        <path id="Path_7710" data-name="Path 7710" d="M2.2,241.742V197.395a95.142,95.142,0,0,1,94.832-94.761h.183c25.92.04,49.823,8.79,67.311,24.637,17.66,16,27.427,38.361,27.5,62.953l.215,10.259a263.885,263.885,0,0,0,263.5,253.371h.208A263.886,263.886,0,0,0,719.423,201.56H720V42.61c-.733-.127-1.467-.262-2.2-.42V199.36h-.492l-.038,1.058A261.689,261.689,0,0,1,455.955,451.653h-.208A261.685,261.685,0,0,1,194.44,200.418l-.212-10.219c-.076-25.2-10.1-48.135-28.223-64.559-17.893-16.213-42.321-25.169-68.789-25.209h-.183A97.351,97.351,0,0,0,0,197.39v43.958c.733.121,1.467.244,2.2.394" transform="translate(0 52.148)" fill="#97d700"/>
        <path id="Path_7711" data-name="Path 7711" d="M2.2,241.742v-63.42a95.142,95.142,0,0,1,94.832-94.76h.183c25.92.04,49.823,8.79,67.311,24.637,17.66,16.005,27.427,38.361,27.5,62.955l.215,10.257a263.885,263.885,0,0,0,263.5,253.371h.208A263.886,263.886,0,0,0,719.423,182.487H720V42.61c-.733-.127-1.467-.262-2.2-.42v138.1h-.492l-.038,1.058A261.689,261.689,0,0,1,455.955,432.58h-.208A261.685,261.685,0,0,1,194.44,181.345l-.212-10.219c-.076-25.2-10.1-48.135-28.223-64.559C148.112,90.354,123.683,81.4,97.216,81.361h-.183A97.348,97.348,0,0,0,0,178.319v63.029c.733.121,1.467.244,2.2.394" transform="translate(0 52.148)" fill="#97d700"/>
        <path id="Path_7712" data-name="Path 7712" d="M2.2,241.742V159.248a95.142,95.142,0,0,1,94.832-94.76h.183c25.92.04,49.823,8.79,67.311,24.639,17.66,16,27.427,38.359,27.5,62.953l.215,10.259a263.885,263.885,0,0,0,263.5,253.371h.208A263.886,263.886,0,0,0,719.423,163.416H720V42.61c-.733-.127-1.467-.262-2.2-.42V161.214h-.492l-.038,1.058A261.685,261.685,0,0,1,455.955,413.507h-.208A261.681,261.681,0,0,1,194.44,162.271l-.212-10.219c-.076-25.2-10.1-48.135-28.223-64.558-17.893-16.213-42.321-25.166-68.789-25.207h-.183A97.349,97.349,0,0,0,0,159.246v82.1c.733.121,1.467.244,2.2.394" transform="translate(0 52.148)" fill="#97d700"/>
        <path id="Path_7713" data-name="Path 7713" d="M2.2,241.742V140.175A95.145,95.145,0,0,1,97.032,45.414h.183c25.92.04,49.823,8.79,67.311,24.639,17.66,16,27.427,38.359,27.5,62.953l.215,10.259a263.885,263.885,0,0,0,263.5,253.371h.208A263.886,263.886,0,0,0,719.423,144.343H720V42.61c-.733-.127-1.467-.262-2.2-.42v99.953h-.492l-.038,1.055A261.689,261.689,0,0,1,455.955,394.436h-.208A261.685,261.685,0,0,1,194.44,143.2l-.212-10.216c-.076-25.2-10.1-48.135-28.223-64.559-17.893-16.216-42.321-25.169-68.789-25.209h-.183A97.351,97.351,0,0,0,0,140.173V241.348c.733.121,1.467.244,2.2.394" transform="translate(0 52.148)" fill="#97d700"/>
        <path id="Path_7714" data-name="Path 7714" d="M2.2,251.719V131.081A95.142,95.142,0,0,1,97.032,36.32h.183c25.92.04,49.823,8.79,67.311,24.637,17.66,16,27.427,38.361,27.5,62.953l.215,10.259a262.837,262.837,0,0,0,77.082,176.083A262.159,262.159,0,0,0,455.747,387.54h.208a262.168,262.168,0,0,0,186.431-77.288,262.826,262.826,0,0,0,77.038-175H720V52.588c-.733-.127-1.467-.262-2.2-.42v80.879h-.492l-.038,1.058A260.631,260.631,0,0,1,640.829,308.7a259.983,259.983,0,0,1-184.875,76.644h-.208A259.983,259.983,0,0,1,270.879,308.7,260.638,260.638,0,0,1,194.44,134.1l-.212-10.219c-.076-25.2-10.1-48.135-28.223-64.559-17.893-16.213-42.321-25.169-68.789-25.209h-.183A97.351,97.351,0,0,0,0,131.077V251.325c.733.121,1.467.244,2.2.394" transform="translate(0 42.171)" fill="#97d700"/>
        <path id="Path_7715" data-name="Path 7715" d="M2.2,262.261V122.55A95.142,95.142,0,0,1,97.032,27.789h.183c25.92.04,49.823,8.79,67.311,24.637,17.66,16.005,27.427,38.361,27.5,62.955l.215,10.257A262.832,262.832,0,0,0,269.325,301.72a262.159,262.159,0,0,0,186.422,77.288h.208A262.168,262.168,0,0,0,642.385,301.72a262.821,262.821,0,0,0,77.038-175H720V63.13c-.733-.127-1.467-.262-2.2-.42v61.806h-.492l-.038,1.058a260.631,260.631,0,0,1-76.441,174.591,259.983,259.983,0,0,1-184.875,76.644h-.208a259.983,259.983,0,0,1-184.868-76.644A260.638,260.638,0,0,1,194.44,125.573l-.212-10.219c-.076-25.2-10.1-48.135-28.223-64.559-17.893-16.213-42.321-25.166-68.789-25.207h-.183A97.348,97.348,0,0,0,0,122.548v139.32c.733.121,1.467.244,2.2.394" transform="translate(0 31.629)" fill="#97d700"/>
        <path id="Path_7716" data-name="Path 7716" d="M2.2,272.8V114.02A95.142,95.142,0,0,1,97.032,19.259h.183c25.92.04,49.823,8.79,67.311,24.639,17.66,16,27.427,38.359,27.5,62.953l.215,10.259a262.832,262.832,0,0,0,77.082,176.08,262.161,262.161,0,0,0,186.422,77.29h.208a262.17,262.17,0,0,0,186.431-77.29,262.821,262.821,0,0,0,77.038-175H720V73.673c-.733-.127-1.467-.262-2.2-.42v42.733h-.492l-.038,1.058a260.64,260.64,0,0,1-76.441,174.593,259.99,259.99,0,0,1-184.875,76.642h-.208a259.99,259.99,0,0,1-184.868-76.642A260.648,260.648,0,0,1,194.44,117.043l-.212-10.219c-.076-25.2-10.1-48.135-28.223-64.559C148.112,26.052,123.683,17.1,97.216,17.059h-.183A97.349,97.349,0,0,0,0,114.018V272.411c.733.121,1.467.244,2.2.394" transform="translate(0 21.085)" fill="#97d700"/>
        <path id="Path_7717" data-name="Path 7717" d="M2.2,283.348V105.49A95.144,95.144,0,0,1,97.032,10.729h.183c25.92.04,49.823,8.79,67.311,24.639,17.66,16,27.427,38.359,27.5,62.953l.215,10.259a262.837,262.837,0,0,0,77.082,176.083,262.168,262.168,0,0,0,186.422,77.288h.208a262.177,262.177,0,0,0,186.431-77.288,262.83,262.83,0,0,0,77.038-175H720V84.216c-.733-.127-1.467-.262-2.2-.42v23.662h-.492l-.038,1.055a260.636,260.636,0,0,1-76.441,174.593,259.972,259.972,0,0,1-184.875,76.642h-.208a259.972,259.972,0,0,1-184.868-76.642A260.644,260.644,0,0,1,194.44,108.513l-.212-10.219c-.076-25.2-10.1-48.133-28.223-64.556C148.112,17.522,123.683,8.569,97.216,8.529h-.183A97.351,97.351,0,0,0,0,105.488V282.954c.733.121,1.467.244,2.2.394" transform="translate(0 10.542)" fill="#97d700"/>
        <path id="Path_7718" data-name="Path 7718" d="M2.2,293.891V96.962A95.142,95.142,0,0,1,97.032,2.2h.183c25.92.038,49.823,8.79,67.311,24.637,17.66,16,27.427,38.361,27.5,62.953l.215,10.259a262.837,262.837,0,0,0,77.082,176.083,262.168,262.168,0,0,0,186.422,77.288h.208a262.177,262.177,0,0,0,186.431-77.288,262.826,262.826,0,0,0,77.038-175H720V94.76c-.733-.127-1.467-.262-2.2-.42v4.588h-.492l-.038,1.058a260.631,260.631,0,0,1-76.441,174.591A259.983,259.983,0,0,1,455.955,351.22h-.208a259.983,259.983,0,0,1-184.868-76.644A260.638,260.638,0,0,1,194.44,99.985l-.212-10.219c-.076-25.2-10.1-48.135-28.223-64.559C148.112,8.992,123.683.039,97.216,0h-.183A97.351,97.351,0,0,0,0,96.958V293.5c.733.121,1.467.244,2.2.394" transform="translate(0 -0.001)" fill="#97d700"/>
      </g>
    </g>
  </g>
</svg>
