<svg xmlns="http://www.w3.org/2000/svg" xmlns:xlink="http://www.w3.org/1999/xlink" width="269" height="174" viewBox="0 0 269 174">
  <defs>
    <clipPath id="clip-path">
      <rect id="Rectangle_9889" data-name="Rectangle 9889" width="269" height="174" transform="translate(927 697)" fill="#fff"/>
    </clipPath>
    <clipPath id="clip-path-2">
      <rect id="Rectangle_9888" data-name="Rectangle 9888" width="442.134" height="334.148" fill="#97d700"/>
    </clipPath>
  </defs>
  <g id="Mask_Group_263" data-name="Mask Group 263" transform="translate(-927 -697)" clip-path="url(#clip-path)">
    <g id="Group_69875" data-name="Group 69875" transform="translate(736.933 490)" opacity="0.3">
      <g id="Group_69874" data-name="Group 69874" clip-path="url(#clip-path-2)">
        <path id="Path_96683" data-name="Path 96683" d="M1.351,164.73v-3.809a58.425,58.425,0,0,1,58.234-58.19H59.7c15.917.025,30.6,5.4,41.334,15.13a51.649,51.649,0,0,1,16.888,38.658l.132,6.3A162.045,162.045,0,0,0,279.863,318.407h.128A162.046,162.046,0,0,0,441.78,163.48h.354V42.448c-.45-.078-.9-.161-1.351-.258V162.128h-.3l-.023.649A160.694,160.694,0,0,1,279.991,317.055h-.128A160.692,160.692,0,0,1,119.4,162.777l-.13-6.275a52.985,52.985,0,0,0-17.331-39.644C90.952,106.9,75.951,101.4,59.7,101.38h-.113A59.781,59.781,0,0,0,0,160.92v3.569c.45.074.9.15,1.351.242" transform="translate(0 15.741)" fill="#97d700"/>
        <path id="Path_96684" data-name="Path 96684" d="M1.351,164.73V149.21A58.427,58.427,0,0,1,59.585,91.018H59.7c15.917.025,30.6,5.4,41.334,15.13a51.651,51.651,0,0,1,16.888,38.658l.132,6.3A162.045,162.045,0,0,0,279.863,306.695h.128A162.046,162.046,0,0,0,441.78,151.768h.354V42.448c-.45-.078-.9-.161-1.351-.258V150.417h-.3l-.023.649A160.7,160.7,0,0,1,279.991,305.344h-.128A160.694,160.694,0,0,1,119.4,151.066l-.13-6.275a52.981,52.981,0,0,0-17.331-39.644C90.952,95.19,75.951,89.692,59.7,89.667h-.113A59.781,59.781,0,0,0,0,149.207v15.281c.45.074.9.15,1.351.242" transform="translate(0 15.741)" fill="#97d700"/>
        <path id="Path_96685" data-name="Path 96685" d="M1.351,164.73V137.5a58.425,58.425,0,0,1,58.234-58.19H59.7c15.917.025,30.6,5.4,41.334,15.129a51.651,51.651,0,0,1,16.888,38.658l.132,6.3A162.045,162.045,0,0,0,279.863,294.982h.128A162.046,162.046,0,0,0,441.78,140.055h.354V42.448c-.45-.078-.9-.161-1.351-.258V138.7h-.3l-.023.649A160.7,160.7,0,0,1,279.991,293.631h-.128A160.694,160.694,0,0,1,119.4,139.354l-.13-6.275a52.983,52.983,0,0,0-17.331-39.644C90.952,83.479,75.951,77.98,59.7,77.955h-.113A59.781,59.781,0,0,0,0,137.495v26.994c.45.074.9.15,1.351.242" transform="translate(0 15.741)" fill="#97d700"/>
        <path id="Path_96686" data-name="Path 96686" d="M1.351,164.73V125.785a58.425,58.425,0,0,1,58.234-58.19H59.7c15.917.025,30.6,5.4,41.334,15.129a51.654,51.654,0,0,1,16.888,38.659l.132,6.3A162.045,162.045,0,0,0,279.863,283.27h.128A162.046,162.046,0,0,0,441.78,128.343h.354V42.448c-.45-.078-.9-.161-1.351-.258v84.8h-.3l-.023.649A160.7,160.7,0,0,1,279.991,281.919h-.128A160.694,160.694,0,0,1,119.4,127.641l-.13-6.275a52.983,52.983,0,0,0-17.331-39.644C90.952,71.766,75.951,66.268,59.7,66.244h-.113A59.779,59.779,0,0,0,0,125.784v38.7c.45.074.9.15,1.351.242" transform="translate(0 15.741)" fill="#97d700"/>
        <path id="Path_96687" data-name="Path 96687" d="M1.351,164.73V114.073a58.425,58.425,0,0,1,58.234-58.19H59.7c15.917.025,30.6,5.4,41.334,15.13a51.648,51.648,0,0,1,16.888,38.658l.132,6.3A162.045,162.045,0,0,0,279.863,271.559h.128A162.046,162.046,0,0,0,441.78,116.632h.354V42.448c-.45-.078-.9-.161-1.351-.258v73.089h-.3l-.023.649A160.694,160.694,0,0,1,279.991,270.206h-.128A160.692,160.692,0,0,1,119.4,115.929l-.13-6.275A52.983,52.983,0,0,0,101.939,70.01C90.952,60.054,75.951,54.556,59.7,54.531h-.113A59.78,59.78,0,0,0,0,114.071v50.417c.45.074.9.15,1.351.242" transform="translate(0 15.741)" fill="#97d700"/>
        <path id="Path_96688" data-name="Path 96688" d="M1.351,164.73V102.36A58.426,58.426,0,0,1,59.585,44.17H59.7c15.917.025,30.6,5.4,41.334,15.13a51.649,51.649,0,0,1,16.888,38.658l.132,6.3A162.045,162.045,0,0,0,279.863,259.846h.128A162.046,162.046,0,0,0,441.78,104.92h.354V42.448c-.45-.078-.9-.161-1.351-.258v61.378h-.3l-.023.648A160.7,160.7,0,0,1,279.991,258.5h-.128A160.694,160.694,0,0,1,119.4,104.217l-.13-6.274A52.981,52.981,0,0,0,101.939,58.3C90.952,48.341,75.951,42.844,59.7,42.819h-.113A59.781,59.781,0,0,0,0,102.359v62.129c.45.074.9.15,1.351.242" transform="translate(0 15.741)" fill="#97d700"/>
        <path id="Path_96689" data-name="Path 96689" d="M1.351,167.741V93.661A58.425,58.425,0,0,1,59.585,35.47H59.7c15.917.025,30.6,5.4,41.334,15.129a51.651,51.651,0,0,1,16.888,38.658l.132,6.3A162.045,162.045,0,0,0,279.863,251.146h.128A162.046,162.046,0,0,0,441.78,96.219h.354V45.46c-.45-.078-.9-.161-1.351-.258V94.868h-.3l-.023.649A160.7,160.7,0,0,1,279.991,249.795h-.128A160.694,160.694,0,0,1,119.4,95.517l-.13-6.275A52.983,52.983,0,0,0,101.939,49.6C90.952,39.642,75.951,34.143,59.7,34.118h-.113A59.781,59.781,0,0,0,0,93.658V167.5c.45.074.9.15,1.351.242" transform="translate(0 12.729)" fill="#97d700"/>
        <path id="Path_96690" data-name="Path 96690" d="M1.351,170.924V85.13A58.425,58.425,0,0,1,59.585,26.94H59.7c15.917.025,30.6,5.4,41.334,15.129a51.654,51.654,0,0,1,16.888,38.659l.132,6.3A162.045,162.045,0,0,0,279.863,242.615h.128A162.046,162.046,0,0,0,441.78,87.688h.354V48.642c-.45-.078-.9-.161-1.351-.258V86.337h-.3l-.023.649A160.7,160.7,0,0,1,279.991,241.264h-.128A160.694,160.694,0,0,1,119.4,86.987l-.13-6.275a52.983,52.983,0,0,0-17.331-39.644C90.952,31.112,75.951,25.614,59.7,25.589h-.113A59.779,59.779,0,0,0,0,85.129v85.553c.45.074.9.15,1.351.242" transform="translate(0 9.547)" fill="#97d700"/>
        <path id="Path_96691" data-name="Path 96691" d="M1.351,174.106V76.6A58.425,58.425,0,0,1,59.585,18.41H59.7c15.917.025,30.6,5.4,41.334,15.13A51.649,51.649,0,0,1,117.919,72.2l.132,6.3a161.4,161.4,0,0,0,47.334,108.127,160.987,160.987,0,0,0,114.477,47.462h.128a160.992,160.992,0,0,0,114.483-47.462A161.392,161.392,0,0,0,441.78,79.158h.354V51.824c-.45-.078-.9-.161-1.351-.258V77.807h-.3l-.023.649a160.053,160.053,0,0,1-46.94,107.213,159.654,159.654,0,0,1-113.527,47.064h-.128A159.654,159.654,0,0,1,166.34,185.67,160.058,160.058,0,0,1,119.4,78.457l-.13-6.275a52.983,52.983,0,0,0-17.331-39.644C90.952,22.582,75.951,17.084,59.7,17.059h-.113A59.78,59.78,0,0,0,0,76.6v97.265c.45.074.9.15,1.351.242" transform="translate(0 6.365)" fill="#97d700"/>
        <path id="Path_96692" data-name="Path 96692" d="M1.351,177.288V68.07A58.425,58.425,0,0,1,59.585,9.88H59.7c15.917.025,30.6,5.4,41.334,15.13a51.649,51.649,0,0,1,16.888,38.658l.132,6.3A161.4,161.4,0,0,0,165.386,178.1a160.991,160.991,0,0,0,114.477,47.461h.128A161,161,0,0,0,394.473,178.1,161.4,161.4,0,0,0,441.78,70.63h.354V55.007c-.45-.078-.9-.161-1.351-.258v14.53h-.3l-.023.648a160.05,160.05,0,0,1-46.94,107.214A159.642,159.642,0,0,1,279.991,224.2h-.128A159.642,159.642,0,0,1,166.34,177.14,160.055,160.055,0,0,1,119.4,69.927l-.13-6.275a52.98,52.98,0,0,0-17.331-39.642C90.952,14.052,75.951,8.554,59.7,8.529h-.113A59.781,59.781,0,0,0,0,68.069V177.047c.45.074.9.15,1.351.242" transform="translate(0 3.182)" fill="#97d700"/>
        <path id="Path_96693" data-name="Path 96693" d="M1.351,180.471V59.542A58.425,58.425,0,0,1,59.585,1.351H59.7c15.917.023,30.6,5.4,41.334,15.129a51.651,51.651,0,0,1,16.888,38.658l.132,6.3a161.4,161.4,0,0,0,47.334,108.128,160.991,160.991,0,0,0,114.477,47.461h.128a161,161,0,0,0,114.483-47.461A161.4,161.4,0,0,0,441.78,62.1h.354V58.189c-.45-.078-.9-.161-1.351-.258v2.818h-.3l-.023.649a160.047,160.047,0,0,1-46.94,107.212,159.649,159.649,0,0,1-113.527,47.065h-.128A159.649,159.649,0,0,1,166.34,168.61,160.052,160.052,0,0,1,119.4,61.4l-.13-6.275a52.981,52.981,0,0,0-17.331-39.644C90.952,5.522,75.951.024,59.7,0h-.113A59.781,59.781,0,0,0,0,59.539v120.69c.45.074.9.15,1.351.242" transform="translate(0 0)" fill="#97d700"/>
      </g>
    </g>
  </g>
</svg>
